<svg width="16" height="16" viewBox="0 0 16 16" fill="#707070" xmlns="http://www.w3.org/2000/svg"><path d="M16 3.09H2.88L2 .32H0v1.07h1.17L4.48 12.8h8.85v-1.07h-8L4.8 9.92h9.81L16 3.09zM4.48 8.85L3.09 4.16h11.52l-1 4.69H4.48z"/><path d="M12.59 12.05c-.239-.001-.477.045-.698.136a1.81 1.81 0 0 0-1.122 1.684 1.74 1.74 0 0 0 .118.707c.088.225.222.429.393.599a1.74 1.74 0 0 0 1.309.504 1.74 1.74 0 0 0 1.81-1.81 1.8 1.8 0 0 0-1.81-1.82zm0 2.56a.75.75 0 0 1-.54-1.28.75.75 0 0 1 1.28.54.73.73 0 0 1-.74.74zm-7.47-2.56a1.8 1.8 0 0 0-1.81 1.82 1.73 1.73 0 0 0 1.81 1.81 1.73 1.73 0 0 0 1.81-1.81 1.8 1.8 0 0 0-1.81-1.82zm0 2.56a.75.75 0 0 1-.527-1.284.75.75 0 0 1 1.277.544.73.73 0 0 1-.75.74z"/></svg>