<svg class="uc-floating-svg" version="1.1" xmlns="http://www.w3.org/2000/svg" width="32" height="32" viewBox="0 0 32 32" aria-hidden="true">
            <title>Contact Us</title>
            <path d="M16 0c-0.138-0.006-0.3-0.009-0.463-0.009-6.602 0-11.974 5.271-12.136 11.834v8.755h1.54v0.34c0 2.353 1.907 4.26 4.26 4.26v0h2v-11.18h-2c-1.555 0.009-2.912 0.85-3.649 2.1l-0.011 0.020v-4.28c0.161-5.397 4.575-9.711 9.996-9.711 0.163 0 0.326 0.004 0.487 0.012l-0.023-0.001c0.168-0.010 0.363-0.016 0.561-0.016 5.391 0 9.769 4.335 9.839 9.709v4.287c-0.738-1.253-2.068-2.089-3.596-2.12h-2.004v11.18h2c1.555-0.009 2.912-0.85 3.649-2.1l0.011-0.020v3.42l-6.46 3.38h-2.94v-1.86h-2.12v4h5.62l8-4.24v-16c-0.127-6.529-5.45-11.773-11.998-11.773-0.198 0-0.394 0.005-0.59 0.014l0.028-0.001zM7.080 18.26c0-0.001 0-0.002 0-0.003 0-1.129 0.882-2.051 1.994-2.116h0.006v6.9c-1.118-0.065-2-0.988-2-2.117 0-0.001 0-0.002 0-0.004v0zM24.92 20.92c0 0.001 0 0.002 0 0.003 0 1.129-0.882 2.051-1.994 2.116h-0.006v-6.9c1.118 0.065 2 0.988 2 2.117 0 0.001 0 0.002 0 0.004v0z"/>
        </svg>