<svg width="16" height="16" viewBox="0 0 16 16" xmlns="http://www.w3.org/2000/svg"><path fill="#707070" d="M16 16H0l.11-.54c0-.21.52-4.4 3.68-6.55l.32-.21.31.21a5.48 5.48 0 0 0 7.16.09l.31-.21.32.21c3.26 2.15 3.68 6.34 3.68 6.55L16 16zM1.16 14.93h13.58A8.67 8.67 0 0 0 11.89 10 6.71 6.71 0 0 1 4 10a9.34 9.34 0 0 0-2.84 4.93zM8 0a4.51 4.51 0 0 0-4.424 5.39 4.51 4.51 0 0 0 8.174 1.625A4.51 4.51 0 0 0 8 0zm0 7.94a3.44 3.44 0 0 1-2.442-5.872A3.44 3.44 0 0 1 11.43 4.51 3.44 3.44 0 0 1 8 7.94z"/></svg>